<svg id="Layer_1" xmlns="http://www.w3.org/2000/svg" viewBox="0 0 1500 500">
    <defs>
        <style>
            .cls-1 {
                fill-opacity: 0;
            }

            .cls-5 {
                fill: #fff;
            }

            .cls-2 {
                fill: #f2f2f2;
            }

            .cls-3 {
                fill: #333;
            }

            .cls-4 {
                fill: #ccc;
            }

            .cls-5 {
                font-size: 38px;
                font-family: PTMono-Regular, PT Mono;
            }

            .cls-6 {
                fill: #ffbb34;
            }

            .cls-7 {
                fill: #ff3034;
            }

            .cls-8 {
                fill: #85cd34;
            }
        </style>
    </defs>
    <title>Feature URL</title>
    <rect class="cls-1" width="1500" height="500" rx="20" ry="20"/>
    <rect class="cls-2" x="48" y="61" width="685" height="367" rx="23" ry="23"/>
    <rect class="cls-2" x="883.38" y="61" width="558.68" height="367" rx="23" ry="23"/>
    <rect class="cls-3" x="85.23" y="124.74" width="587.55" height="63.44" rx="7.2" ry="7.2"/>
    <rect class="cls-4" x="85.23" y="218.74" width="487.79" height="35.47" rx="7.2" ry="7.2"/>
    <rect class="cls-4" x="85.23" y="269.71" width="487.79" height="35.47" rx="7.2" ry="7.2"/>
    <rect class="cls-4" x="85.23" y="320.69" width="487.79" height="35.47" rx="7.2" ry="7.2"/>
    <text class="cls-5" transform="translate(114 168.26)">
        <tspan xml:space="preserve">       /       /       </tspan>
    </text>
    <path class="cls-4"
          d="M982.29,132.78h48.82a3.38,3.38,0,0,1,3.38,3.38v50.69a3.38,3.38,0,0,1-3.38,3.38H942.39a3.38,3.38,0,0,1-3.38-3.38V128.18a3.38,3.38,0,0,1,3.38-3.38h27.37Z"/>
    <polygon class="cls-3" points="790.91 281.25 845.04 250 790.91 218.75 790.91 281.25"/>
    <rect class="cls-6" x="303.95" y="139.96" width="145.18" height="33" rx="7.74" ry="7.74"/>
    <rect class="cls-7" x="119.31" y="139.96" width="145.18" height="33" rx="7.74" ry="7.74"/>
    <rect class="cls-7" x="1072.14" y="137.72" width="145.18" height="39.6" rx="8.48" ry="8.48"/>
    <path class="cls-4"
          d="M1064.83,227.15h48.82a3.38,3.38,0,0,1,3.38,3.38v50.69a3.38,3.38,0,0,1-3.38,3.38h-88.73a3.38,3.38,0,0,1-3.38-3.38V222.55a3.38,3.38,0,0,1,3.38-3.38h27.37Z"/>
    <rect class="cls-6" x="1154.68" y="232.08" width="145.18" height="39.6" rx="8.48" ry="8.48"/>
    <path class="cls-4"
          d="M1154.64,321.5h48.82a3.38,3.38,0,0,1,3.38,3.38v50.69a3.38,3.38,0,0,1-3.38,3.38h-88.73a3.38,3.38,0,0,1-3.38-3.38V316.9a3.38,3.38,0,0,1,3.38-3.38h27.37Z"/>
    <rect class="cls-8" x="1244.49" y="326.43" width="145.18" height="39.6" rx="8.48" ry="8.48"/>
    <rect class="cls-8" x="481.96" y="139.96" width="145.18" height="33" rx="7.74" ry="7.74"/>
</svg>
