<svg id="Layer_1" xmlns="http://www.w3.org/2000/svg" viewBox="0 0 1500 500">
    <defs>
        <style>
            .cls-1 {
                fill-opacity: 0;
            }

            .cls-2 {
                fill: #f2f2f2;
            }

            .cls-3 {
                font-size: 36px;
                font-family: PTMono-Regular, PT Mono;
            }

            .cls-4 {
                fill: #ff3034;
            }

            .cls-5 {
                fill: #85cd34;
            }

            .cls-6 {
                fill: #ccc;
            }

            .cls-7 {
                fill: #ffbb34;
            }

            .cls-8 {
                fill: #333;
            }
        </style>
    </defs>
    <title>Feature nested</title>
    <rect class="cls-1" width="1500" height="500" rx="20" ry="20"/>
    <rect class="cls-2" x="49" y="37.27" width="681" height="414.95" rx="24.5" ry="24.5"/>
    <rect class="cls-2" x="883.38" y="37.27" width="558.68" height="414.95" rx="24.5" ry="24.5"/>
    <text class="cls-3" transform="translate(935.23 105.06)">
        <tspan xml:space="preserve">interface           {</tspan>
    </text>
    <text class="cls-3" transform="translate(935.23 231.09)">}</text>
    <rect class="cls-4" x="984.85" y="128.13" width="331.13" height="36.24" rx="6.31" ry="6.31"/>
    <rect class="cls-5" x="984.85" y="174.85" width="331.13" height="36.24" rx="6.31" ry="6.31"/>
    <rect class="cls-6" x="1162.72" y="75.86" width="176.26" height="36.24" rx="8.94" ry="8.94"/>
    <text class="cls-3" transform="translate(935.23 305.99)">
        <tspan xml:space="preserve">interface           {</tspan>
    </text>
    <text class="cls-3" transform="translate(935.23 432.02)">}</text>
    <rect class="cls-7" x="984.85" y="329.06" width="331.13" height="36.24" rx="6.31" ry="6.31"/>
    <rect class="cls-7" x="984.85" y="375.78" width="331.13" height="36.24" rx="6.31" ry="6.31"/>
    <rect class="cls-4" x="1162.72" y="276.79" width="176.26" height="36.24" rx="8.94" ry="8.94"/>
    <rect class="cls-8" x="85.23" y="74.74" width="587.55" height="63.44" rx="7.2" ry="7.2"/>
    <rect class="cls-4" x="85.23" y="168.74" width="487.79" height="35.47" rx="7.2" ry="7.2"/>
    <rect class="cls-7" x="152.99" y="219.71" width="420.02" height="35.47" rx="6.68" ry="6.68"/>
    <rect class="cls-5" x="85.23" y="321.67" width="487.79" height="35.47" rx="7.2" ry="7.2"/>
    <rect class="cls-7" x="152.99" y="270.69" width="420.02" height="35.47" rx="6.68" ry="6.68"/>
    <polygon class="cls-8" points="790.91 281.25 845.04 250 790.91 218.75 790.91 281.25"/>
</svg>
